<?xml version="1.0" encoding="UTF-8" standalone="no"?>
<svg
   width="24"
   height="24"
   viewBox="0 0 24 24"
   version="1.1"
   id="svg1793"
   sodipodi:docname="logo-instagram-white.svg"
   inkscape:version="1.2.1 (0f2f062aeb, 2022-09-21, custom)"
   xmlns:inkscape="http://www.inkscape.org/namespaces/inkscape"
   xmlns:sodipodi="http://sodipodi.sourceforge.net/DTD/sodipodi-0.dtd"
   xmlns="http://www.w3.org/2000/svg"
   xmlns:svg="http://www.w3.org/2000/svg">
  <defs
     id="defs1797" />
  <sodipodi:namedview
     id="namedview1795"
     pagecolor="#ffffff"
     bordercolor="#000000"
     borderopacity="0.25"
     inkscape:showpageshadow="2"
     inkscape:pageopacity="0.0"
     inkscape:pagecheckerboard="0"
     inkscape:deskcolor="#d1d1d1"
     showgrid="false"
     inkscape:zoom="41.75"
     inkscape:cx="10.407186"
     inkscape:cy="12"
     inkscape:window-width="1920"
     inkscape:window-height="1043"
     inkscape:window-x="0"
     inkscape:window-y="0"
     inkscape:window-maximized="1"
     inkscape:current-layer="svg1793" />
  <path
     d="M15.233 5.488c-.843-.038-1.097-.046-3.233-.046s-2.389.008-3.232.046c-2.17.099-3.181 1.127-3.279 3.279-.039.844-.048 1.097-.048 3.233s.009 2.389.047 3.233c.099 2.148 1.106 3.18 3.279 3.279.843.038 1.097.047 3.233.047 2.137 0 2.39-.008 3.233-.046 2.17-.099 3.18-1.129 3.279-3.279.038-.844.046-1.097.046-3.233s-.008-2.389-.046-3.232c-.099-2.153-1.111-3.182-3.279-3.281zm-3.233 10.62c-2.269 0-4.108-1.839-4.108-4.108 0-2.269 1.84-4.108 4.108-4.108s4.108 1.839 4.108 4.108c0 2.269-1.839 4.108-4.108 4.108zm4.271-7.418c-.53 0-.96-.43-.96-.96s.43-.96.96-.96.96.43.96.96-.43.96-.96.96zm-1.604 3.31c0 1.473-1.194 2.667-2.667 2.667s-2.667-1.194-2.667-2.667c0-1.473 1.194-2.667 2.667-2.667s2.667 1.194 2.667 2.667zm4.333-12h-14c-2.761 0-5 2.239-5 5v14c0 2.761 2.239 5 5 5h14c2.762 0 5-2.239 5-5v-14c0-2.761-2.238-5-5-5zm.952 15.298c-.132 2.909-1.751 4.521-4.653 4.654-.854.039-1.126.048-3.299.048s-2.444-.009-3.298-.048c-2.908-.133-4.52-1.748-4.654-4.654-.039-.853-.048-1.125-.048-3.298 0-2.172.009-2.445.048-3.298.134-2.908 1.748-4.521 4.654-4.653.854-.04 1.125-.049 3.298-.049s2.445.009 3.299.048c2.908.133 4.523 1.751 4.653 4.653.039.854.048 1.127.048 3.299 0 2.173-.009 2.445-.048 3.298z"
     id="path1791"
     style="fill:#ffffff;fill-opacity:1" />
</svg>
